<svg xmlns="http://www.w3.org/2000/svg" viewBox="0 0 338.91 50.27">
  <g id="Ebene_2" data-name="Ebene 2">
    <g id="Ebene_1-2" data-name="Ebene 1">
      <polygon points="78.71 0 78.71 17.63 70.31 17.63 70.31 0 60.25 0 60.25 49.87 70.65 49.87 70.65 29.2 78.36 29.2 78.43 49.87 88.76 49.87 88.76 0 78.71 0" fill="#fff"/>
      <path d="M106.05,0,92.52,49.87h10.32L105.29,40h9.44l2.45,9.86H127.5L113.83,0ZM110,19l2.75,12.19h-5.58Z" fill="#fff"/>
      <path d="M163.69,50.27H152.74l-7.85-20.59h-3V50.27H131.53V.07L145.65,0h.2c10.27,0,15.43,5.23,15.43,15,0,5.51-2,9.71-6.75,12.68l9.16,22.58M145.56,8.67H145l-3,.14V21l3.51.21c.25,0,.48,0,.71,0,4.13,0,4.94-2.37,4.94-6.35s-1-6.21-5.53-6.21" fill="#fff"/>
      <path d="M201.29,50.27H190.34l-7.85-20.59h-3V50.27H169.13V.07L183.25,0h.2c10.26,0,15.43,5.23,15.43,15,0,5.51-2,9.71-6.75,12.68l9.16,22.58h0M183.15,8.67h-.59l-3,.14V21l3.51.21c.25,0,.48,0,.71,0,4.13,0,4.94-2.37,4.94-6.35s-1-6.21-5.54-6.21" fill="#fff"/>
      <path d="M236.48,50.27H226.15L223.6,40h-9.44l-2.54,10.26H201.29L214.92,0h7.79l13.77,50.27M218.85,19,216,31.2h5.57Z" fill="#fff"/>
      <polygon points="270.43 50.27 261.34 50.27 250.05 24.93 250.05 50.27 239.86 50.27 239.86 0.07 249.15 0 260.31 25.55 260.31 0.07 270.5 0.07 270.43 50.27" fill="#fff"/>
      <path d="M289.57,50.27H277.38V.07l13-.07h.2c9.93,0,15.5,5.08,15.5,13.43V36c0,9.43-6,14.32-16.53,14.32M290.9,8.65l-.78,0-2.27.14v32.5l2.34.14.64,0c3.47,0,4.94-1.66,4.94-4.91V13.43c0-3-1.32-4.78-4.87-4.78" fill="#fff"/>
      <polygon points="329.61 50.27 318.59 50.27 318.66 8.88 309.43 8.88 309.43 0 338.91 0 338.91 8.88 329.61 8.88 329.61 50.27" fill="#fff"/>
      <path d="M50.27,50.27H0V0H50.27ZM10.48,39.79,6.12,41,1.76,42.13,5,45.32l3.2,3.19,1.17-4.36,1.16-4.36M25.14,4.45A20.69,20.69,0,1,0,45.82,25.14,20.69,20.69,0,0,0,25.14,4.45m17-2.69L41,6.12l-1.16,4.36,4.36-1.17,4.36-1.17L45.32,5l-3.2-3.19m-17,39.3A15.93,15.93,0,1,1,41.06,25.14,15.93,15.93,0,0,1,25.14,41.06m-7.3-13.55H32.43v8H37.1V14.72H32.43v8.12H17.84V14.72H13.17V35.55h4.67v-8" fill="#fff"/>
    </g>
  </g>
</svg>
